#!OML:ASF E:\CV Data\Top Level 1\Subject 1\Session 1\player.ASF
:FULLY-SPECIFIED
:DEGREES
2157
root 6.3816 17.8133 -3.84725 11.8064 -38.578 -2.95252
lowerback 4.10056 5.6014 0.968007
upperback -1.98144 7.62388 2.18652
thorax -4.51129 3.78826 1.10689
lowerneck -16.5134 0.340821 -6.80828
upperneck 14.5283 1.59171 2.9178
head 7.08762 0.650373 2.23354
rclavicle 3.21037e-014 -7.15625e-015
rhumerus -17.1439 0.708801 -88.7059
rradius 29.5372
rwrist -7.71151
rhand -22.5568 4.57836
rfingers 7.12502
rthumb 3.87109 -25.3662
lclavicle 3.21037e-014 -7.15625e-015
lhumerus -35.5882 -16.2189 95.912
lradius 64.88
lwrist 18.3375
lhand -14.2871 16.9614
lfingers 7.12502
lthumb 11.8523 46.606
rfemur -3.67127 -5.83742 20.2716
rtibia 15.3411
rfoot -18.3207 -27.1211
rtoes 4.69827
lfemur -23.0213 -2.82783 -13.1729
ltibia 17.2097
lfoot -2.11139 -4.09218
ltoes -3.70866
2158
root 6.37237 17.8112 -3.85831 11.6931 -38.5462 -2.94024
lowerback 4.03751 5.63028 0.985422
upperback -1.99113 7.66041 2.14155
thorax -4.47792 3.80569 1.05489
lowerneck -16.4982 0.29863 -6.81111
upperneck 14.5655 1.52385 2.97423
head 7.10001 0.622187 2.24583
rclavicle 6.43068e-014 -4.77083e-015
rhumerus -17.1737 1.56568 -88.9885
rradius 30.1872
rwrist -7.83996
rhand -22.4855 4.76391
rfingers 7.12502
rthumb 3.93996 -25.1794
lclavicle 6.43068e-014 -4.77083e-015
lhumerus -35.6042 -16.0824 95.8839
lradius 64.9107
lwrist 18.3314
lhand -14.3787 16.8952
lfingers 7.12502
lthumb 11.7639 46.5448
rfemur -3.61091 -5.87243 20.3044
rtibia 15.4421
rfoot -18.39 -27.1088
rtoes 4.70551
lfemur -22.9283 -2.82928 -13.1436
ltibia 17.2214
lfoot -2.12021 -4.11496
ltoes -3.77602
2159
root 6.36326 17.809 -3.86941 11.579 -38.5076 -2.92454
lowerback 3.97746 5.65625 0.99859
upperback -2.00779 7.69327 2.10025
thorax -4.45445 3.8214 1.00856
lowerneck -16.4481 0.261818 -6.81927
upperneck 14.5932 1.46313 3.02397
head 7.10301 0.596526 2.25706
rclavicle -9.44227e-014 -3.65764e-014
rhumerus -17.249 2.40438 -89.2532
rradius 30.885
rwrist -7.98846
rhand -22.3848 4.95036
rfingers 7.12502
rthumb 4.03722 -24.9911
lclavicle -9.44227e-014 -3.65764e-014
lhumerus -35.6369 -15.9328 95.8648
lradius 64.9449
lwrist 18.345
lhand -14.4646 16.8078
lfingers 7.12502
lthumb 11.6811 46.4622
rfemur -3.55359 -5.9098 20.3355
rtibia 15.5475
rfoot -18.4645 -27.1003
rtoes 4.7193
lfemur -22.8396 -2.85338 -13.1123
ltibia 17.2354
lfoot -2.12787 -4.12265
ltoes -3.85141
2160
root 6.35431 17.8068 -3.88049 11.4648 -38.4628 -2.90423
lowerback 3.92232 5.68343 1.00181
upperback -2.02104 7.72732 2.06113
thorax -4.43179 3.83802 0.969465
lowerneck -16.4219 0.222548 -6.82714
upperneck 14.6261 1.40218 3.06572
head 7.11199 0.570031 2.2659
rclavicle 9.84978e-014 5.56597e-015
rhumerus -17.3445 3.22398 -89.4984
rradius 31.6271
rwrist -8.14967
rhand -22.2832 5.11955
rfingers 7.12502
rthumb 4.1353 -24.8201
lclavicle 9.84978e-014 5.56597e-015
lhumerus -35.6597 -15.7873 95.8522
lradius 64.9767
lwrist 18.3731
lhand -14.5615 16.6828
lfingers 7.12502
lthumb 11.5877 46.3424
rfemur -3.50124 -5.94828 20.364
rtibia 15.6572
rfoot -18.5397 -27.0988
rtoes 4.72666
lfemur -22.7552 -2.88075 -13.0855
ltibia 17.2492
lfoot -2.13617 -4.13454
ltoes -3.9481
2161
root 6.34555 17.8046 -3.89133 11.3516 -38.4111 -2.88254
lowerback 3.8695 5.70718 1.00156
upperback -2.03691 7.757 2.02869
thorax -4.41447 3.85263 0.939019
lowerneck -16.3753 0.184621 -6.84817
upperneck 14.6472 1.34548 3.10309
head 7.11337 0.544542 2.27554
rclavicle -7.00716e-014 1.35174e-014
rhumerus -17.4715 4.03037 -89.7242
rradius 32.4052
rwrist -8.31012
rhand -22.192 5.25739
rfingers 7.12502
rthumb 4.2234 -24.6805
lclavicle -7.00716e-014 1.35174e-014
lhumerus -35.6924 -15.6272 95.8496
lradius 65.0117
lwrist 18.4137
lhand -14.6476 16.5536
lfingers 7.12502
lthumb 11.5046 46.2179
rfemur -3.45138 -5.98774 20.3919
rtibia 15.769
rfoot -18.6147 -27.1047
rtoes 4.73138
lfemur -22.6722 -2.92912 -13.0565
ltibia 17.2596
lfoot -2.13854 -4.13169
ltoes -4.04096
2162
root 6.33715 17.8024 -3.90228 11.2455 -38.3501 -2.86345
lowerback 3.81948 5.72634 1.00322
upperback -2.05189 7.78084 2.00003
thorax -4.39796 3.86432 0.911659
lowerneck -16.336 0.146382 -6.88127
upperneck 14.6593 1.29061 3.14724
head 7.11292 0.520075 2.28951
rclavicle 8.50798e-014 -2.22639e-014
rhumerus -17.6057 4.81552 -89.9368
rradius 33.191
rwrist -8.46281
rhand -22.1214 5.39561
rfingers 7.12502
rthumb 4.29157 -24.5409
lclavicle 8.50798e-014 -2.22639e-014
lhumerus -35.7276 -15.4584 95.8483
lradius 65.0553
lwrist 18.4557
lhand -14.7194 16.444
lfingers 7.12502
lthumb 11.4354 46.1121
rfemur -3.4102 -6.03258 20.4241
rtibia 15.8832
rfoot -18.6839 -27.1174
rtoes 4.72583
lfemur -22.5969 -2.99269 -13.0226
ltibia 17.2674
lfoot -2.13571 -4.1232
ltoes -4.14064
2163
root 6.32889 17.8003 -3.91305 11.1403 -38.2855 -2.84318
lowerback 3.76801 5.74567 1.00508
upperback -2.0601 7.80461 1.96994
thorax -4.37331 3.87602 0.883363
lowerneck -16.3091 0.106608 -6.91052
upperneck 14.6631 1.23452 3.18654
head 7.11204 0.495 2.30113
rclavicle 4.9895e-014 -2.3059e-014
rhumerus -17.7414 5.5766 -90.1383
rradius 33.9943
rwrist -8.62491
rhand -22.0596 5.52695
rfingers 7.12502
rthumb 4.35121 -24.4083
lclavicle 4.9895e-014 -2.3059e-014
lhumerus -35.7486 -15.2987 95.8439
lradius 65.0987
lwrist 18.5011
lhand -14.8005 16.3331
lfingers 7.12502
lthumb 11.3572 46.0055
rfemur -3.37157 -6.07789 20.4557
rtibia 15.9985
rfoot -18.7507 -27.1364
rtoes 4.71531
lfemur -22.5223 -3.06292 -12.9894
ltibia 17.2725
lfoot -2.12954 -4.11021
ltoes -4.23244
2164
root 6.32094 17.7982 -3.92352 11.0352 -38.212 -2.81861
lowerback 3.71255 5.76079 1.00909
upperback -2.06491 7.82263 1.93907
thorax -4.34237 3.88485 0.854265
lowerneck -16.2843 0.0690545 -6.94451
upperneck 14.6653 1.18209 3.22954
head 7.11076 0.471795 2.31513
rclavicle 2.72335e-014 -1.51076e-014
rhumerus -17.8836 6.32395 -90.3295
rradius 34.8097
rwrist -8.80381
rhand -22.0151 5.64423
rfingers 7.12502
rthumb 4.39423 -24.2902
lclavicle 2.72335e-014 -1.51076e-014
lhumerus -35.7661 -15.1447 95.8382
lradius 65.1451
lwrist 18.5443
lhand -14.8974 16.2207
lfingers 7.12502
lthumb 11.2637 45.8983
rfemur -3.33619 -6.12734 20.4842
rtibia 16.1159
rfoot -18.823 -27.1598
rtoes 4.71515
lfemur -22.4527 -3.12138 -12.9646
ltibia 17.2752
lfoot -2.12326 -4.11789
ltoes -4.2998
2165
root 6.31321 17.7961 -3.93387 10.9335 -38.1327 -2.79343
lowerback 3.65258 5.77201 1.01694
upperback -2.0683 7.83546 1.90743
thorax -4.30669 3.89104 0.823349
lowerneck -16.2551 0.0341709 -6.98084
upperneck 14.6645 1.13308 3.27497
head 7.10761 0.450343 2.3306
rclavicle 6.75868e-014 -2.14687e-014
rhumerus -18.0273 7.05298 -90.5142
rradius 35.6231
rwrist -8.99555
rhand -21.9845 5.76393
rfingers 7.12502
rthumb 4.42377 -24.1699
lclavicle 6.75868e-014 -2.14687e-014
lhumerus -35.7812 -14.9959 95.83
lradius 65.1913
lwrist 18.5838
lhand -14.9913 16.1461
lfingers 7.12502
lthumb 11.1731 45.8286
rfemur -3.30524 -6.18024 20.5131
rtibia 16.2338
rfoot -18.8967 -27.1863
rtoes 4.72124
lfemur -22.3878 -3.17121 -12.9432
ltibia 17.2752
lfoot -2.11631 -4.13859
ltoes -4.35103
